<svg width="111" height="17" viewBox="0 0 111 17" fill="none" xmlns="http://www.w3.org/2000/svg">
<path d="M7.12279 2.49818V14.1944H2.47886C2.70846 13.0626 3.26453 12.0228 4.10023 11.1888C4.93546 10.3544 5.97613 9.7998 7.10737 9.57225C7.10136 9.53327 7.09533 9.49428 7.0897 9.45515H2.50015C2.50029 9.45515 2.50029 9.45502 2.50039 9.45502H2.50015C2.47801 9.47634 2.45625 9.4981 2.43408 9.51976C1.67383 10.2794 1.07563 11.1643 0.65771 12.1497C0.22427 13.1706 0.00409191 14.2544 0.00204529 15.3716L0 16.5523H9.46061V9.45502H9.46265L9.46231 9.37322L9.46061 8.27623V2.47928H9.48083V2.47556H14.1248C13.8955 3.60731 13.3393 4.64709 12.5037 5.48126C11.9045 6.07966 11.2 6.53404 10.4321 6.82719V7.09697H14.2218C14.9576 6.34958 15.5375 5.48331 15.9462 4.52028C16.3792 3.49935 16.5995 2.41563 16.6015 1.29845L16.6035 0.117615H7.12279V2.49818Z" fill="#F6AE2D"/>
<path d="M2.36 7.09693V2.47201C3.49727 2.69789 4.54358 3.25324 5.3829 4.09137C6.21812 4.92588 6.77467 5.96566 7.00392 7.09693H2.36ZM7.08961 9.45498H7.1227V2.49814C7.09814 2.47276 7.07358 2.44773 7.04857 2.42283C6.28819 1.66326 5.40217 1.06677 4.41627 0.650415C3.3945 0.218646 2.30993 0 1.19288 0H0.00195312V9.45498H7.08961Z" fill="#33658A"/>
<path d="M10.4316 9.45496H14.1255V14.0799C12.9878 13.8544 11.9418 13.2987 11.1026 12.4606C10.8537 12.2121 10.6293 11.9451 10.4316 11.6628V14.9784C10.9386 15.3465 11.4864 15.6554 12.0691 15.9015C13.0909 16.3332 14.1755 16.5523 15.2926 16.5523H16.4831V7.09691H10.4316V9.45496Z" fill="#F26419"/>
<path d="M22.1211 0.933954C22.1211 0.76627 22.1792 0.624411 22.2952 0.508332C22.4113 0.392253 22.5532 0.334192 22.7209 0.334192C22.8885 0.334192 23.0304 0.392253 23.1465 0.508332C23.2626 0.624411 23.3206 0.76627 23.3206 0.933954V6.40913H29.8986V0.933954C29.8986 0.76627 29.9566 0.624411 30.0727 0.508332C30.1888 0.392253 30.3307 0.334192 30.4983 0.334192C30.666 0.334192 30.8079 0.392253 30.924 0.508332C31.04 0.624411 31.0981 0.76627 31.0981 0.933954V12.1358C31.0981 12.3035 31.04 12.4454 30.924 12.5615C30.8079 12.6776 30.666 12.7356 30.4983 12.7356C30.3307 12.7356 30.1888 12.6776 30.0727 12.5615C29.9566 12.4454 29.8986 12.3035 29.8986 12.1358V7.60867H23.3206V12.1358C23.3206 12.3035 23.2626 12.4454 23.1465 12.5615C23.0304 12.6776 22.8885 12.7356 22.7209 12.7356C22.5532 12.7356 22.4113 12.6776 22.2952 12.5615C22.1792 12.4454 22.1211 12.3035 22.1211 12.1358V0.933954ZM32.4014 3.93273C32.4014 3.76505 32.4595 3.62319 32.5755 3.50711C32.6916 3.39103 32.8335 3.33297 33.0012 3.33297C33.1688 3.33297 33.3107 3.39103 33.4268 3.50711C33.5429 3.62319 33.6009 3.76505 33.6009 3.93273V8.07298C33.6009 8.55021 33.6912 8.99843 33.8718 9.4176C34.0524 9.83677 34.3007 10.2044 34.6167 10.5204C34.9327 10.8364 35.3002 11.0847 35.7194 11.2652C36.1386 11.4458 36.5868 11.5361 37.0641 11.5361C37.5413 11.5361 37.9895 11.4458 38.4087 11.2652C38.8278 11.0847 39.1955 10.8364 39.5115 10.5204C39.8275 10.2044 40.0757 9.83677 40.2563 9.4176C40.4369 8.99843 40.5272 8.55021 40.5272 8.07298V3.93273C40.5272 3.76505 40.5852 3.62319 40.7013 3.50711C40.8174 3.39103 40.9592 3.33297 41.1269 3.33297C41.2946 3.33297 41.4365 3.39103 41.5525 3.50711C41.6686 3.62319 41.7267 3.76505 41.7267 3.93273V8.07298C41.7267 8.71789 41.6041 9.32407 41.3591 9.8916C41.114 10.4591 40.7819 10.9525 40.3627 11.3717C39.9435 11.7908 39.4502 12.123 38.8827 12.368C38.3152 12.6131 37.7089 12.7356 37.0641 12.7356C36.4191 12.7356 35.8129 12.6131 35.2454 12.368C34.6779 12.123 34.1846 11.7908 33.7654 11.3717C33.3462 10.9525 33.0141 10.4591 32.769 9.8916C32.524 9.32407 32.4014 8.71789 32.4014 8.07298V3.93273ZM44.2295 10.5688C44.3327 10.4398 44.4681 10.3721 44.6357 10.3656C44.8034 10.3592 44.9389 10.414 45.0421 10.5301C45.3903 10.8654 45.7837 11.1169 46.2222 11.2846C46.6607 11.4523 47.1025 11.5328 47.5475 11.5264C47.9925 11.52 48.4278 11.4297 48.8534 11.2555C49.2791 11.0814 49.6595 10.8203 49.9949 10.472C50.3302 10.1238 50.5785 9.73683 50.7398 9.31121C50.901 8.88559 50.9751 8.45027 50.9622 8.00528C50.9493 7.56029 50.8558 7.12498 50.6817 6.69936C50.5076 6.27373 50.2464 5.89322 49.8981 5.55789C49.5499 5.22252 49.163 4.97426 48.7373 4.81303C48.3117 4.6518 47.8764 4.57765 47.4314 4.59052C46.9864 4.60343 46.5479 4.70019 46.1158 4.88074C45.6837 5.0613 45.3 5.32573 44.9647 5.67397L41.7724 8.76946C41.6692 8.88559 41.5306 8.94683 41.3564 8.95329C41.1823 8.95974 41.0437 8.9049 40.9405 8.78882C40.8115 8.67274 40.747 8.53084 40.747 8.3632C40.747 8.19552 40.7986 8.05366 40.9018 7.93758L44.1134 4.84205C44.5648 4.37773 45.0743 4.02303 45.6418 3.77796C46.2093 3.53289 46.793 3.40713 47.3927 3.40067C47.9925 3.39426 48.5858 3.50066 49.1726 3.7199C49.7595 3.9392 50.298 4.26807 50.7881 4.7066C51.2266 5.14514 51.5652 5.64814 51.8038 6.21567C52.0424 6.7832 52.165 7.36683 52.1714 7.96659C52.1778 8.56636 52.0747 9.15644 51.8619 9.73683C51.6491 10.3172 51.3169 10.8396 50.8655 11.3039C50.4141 11.7682 49.9078 12.1197 49.3468 12.3584C48.7857 12.597 48.2053 12.7195 47.6055 12.7259C47.0058 12.7324 46.4157 12.626 45.8353 12.4067C45.2549 12.1874 44.726 11.8457 44.2488 11.3813C44.1198 11.2652 44.0554 11.1266 44.0554 10.9654C44.0554 10.8041 44.1134 10.6719 44.2295 10.5688ZM53.6972 0.914584C53.6972 0.746944 53.7553 0.605041 53.8714 0.488962C53.9875 0.372883 54.1293 0.314865 54.297 0.314865C54.4647 0.314865 54.6065 0.372883 54.7226 0.488962C54.8387 0.605041 54.8968 0.746944 54.8968 0.914584V3.29428H59.1725C59.3788 3.29428 59.5433 3.35234 59.6658 3.46842C59.7883 3.5845 59.8496 3.72636 59.8496 3.89405C59.8496 4.06173 59.7883 4.20359 59.6658 4.31967C59.5433 4.43575 59.3788 4.49381 59.1725 4.49381H54.8968V8.07298C54.8968 8.55021 54.9871 8.99843 55.1676 9.4176C55.3482 9.83677 55.5965 10.2044 55.9125 10.5204C56.2285 10.8364 56.5961 11.0847 57.0152 11.2652C57.4345 11.4458 57.8826 11.5361 58.3599 11.5361C58.8371 11.5361 59.2821 11.4491 59.6948 11.2749C60.1075 11.1008 60.4687 10.859 60.7782 10.5494C60.8814 10.4333 61.0136 10.3656 61.1749 10.3463C61.3361 10.3269 61.4876 10.3688 61.6295 10.472C61.7327 10.5752 61.7972 10.7042 61.823 10.859C61.8488 11.0137 61.8165 11.1621 61.7262 11.3039C61.3006 11.7554 60.7976 12.1068 60.2172 12.3584C59.6368 12.6098 59.0177 12.7356 58.3599 12.7356C57.715 12.7356 57.1088 12.6131 56.5412 12.368C55.9738 12.123 55.4804 11.7908 55.0612 11.3717C54.642 10.9525 54.3099 10.4591 54.0648 9.8916C53.8198 9.32407 53.6972 8.71789 53.6972 8.07298V0.914584ZM66.454 12.1358C66.454 12.3035 66.396 12.4454 66.2799 12.5615C66.1638 12.6776 66.0219 12.7356 65.8543 12.7356C65.2609 12.7227 64.7644 12.6066 64.3646 12.3874C63.9647 12.1681 63.639 11.8972 63.3875 11.5748C63.136 11.2524 62.9554 10.9105 62.8458 10.5494C62.7362 10.1883 62.6813 9.86582 62.6813 9.58205V0.914584C62.6813 0.746944 62.7394 0.605041 62.8555 0.488962C62.9716 0.372883 63.1134 0.314865 63.2811 0.314865C63.4488 0.314865 63.5906 0.372883 63.7067 0.488962C63.8228 0.605041 63.8809 0.746944 63.8809 0.914584V9.58205C63.8809 9.68522 63.9034 9.84 63.9486 10.0464C63.9937 10.2528 64.0872 10.4655 64.2291 10.6848C64.371 10.9041 64.5709 11.0975 64.8289 11.2652C65.0868 11.4329 65.4286 11.5232 65.8543 11.5361C66.0219 11.5361 66.1638 11.5941 66.2799 11.7102C66.396 11.8263 66.454 11.9682 66.454 12.1358ZM67.738 8.63405C67.8025 9.04677 67.9379 9.43051 68.1443 9.78521C68.3507 10.1399 68.6054 10.4462 68.9085 10.7042C69.2116 10.9621 69.5566 11.1653 69.9435 11.3136C70.3305 11.4619 70.7368 11.5361 71.1624 11.5361C71.6397 11.5361 72.0846 11.4491 72.4974 11.2749C72.9101 11.1008 73.2777 10.859 73.6001 10.5494C73.7162 10.4333 73.8581 10.3753 74.0258 10.3753C74.1934 10.3753 74.3353 10.4333 74.4514 10.5494C74.5675 10.6655 74.6255 10.8074 74.6255 10.9751C74.6255 11.1427 74.5675 11.2846 74.4514 11.4007C74.0258 11.8779 73.5453 12.2165 73.0101 12.4164C72.4748 12.6163 71.8589 12.7162 71.1624 12.7162C70.5175 12.7162 69.9145 12.6002 69.3534 12.368C68.7924 12.1358 68.299 11.8134 67.8734 11.4007C67.4478 10.9879 67.1124 10.4978 66.8674 9.93029C66.6223 9.36276 66.4998 8.74367 66.4998 8.07298C66.4998 7.42807 66.6191 6.82512 66.8577 6.26405C67.0963 5.70298 67.4252 5.21288 67.8444 4.79367C68.2636 4.3745 68.7601 4.03913 69.3341 3.78765C69.9081 3.53612 70.5304 3.39749 71.2011 3.37167C71.8202 3.37167 72.4038 3.4942 72.952 3.73928C73.5002 3.98435 73.9871 4.31321 74.4127 4.72596C74.8384 5.13867 75.1769 5.62236 75.4284 6.17698C75.6799 6.7316 75.8186 7.3249 75.8444 7.95691C75.8702 8.17615 75.8154 8.34383 75.6799 8.45991C75.5445 8.57599 75.3994 8.63405 75.2446 8.63405H67.738ZM71.1624 4.59052C70.7368 4.59052 70.3337 4.66467 69.9532 4.81303C69.5727 4.96135 69.231 5.16128 68.9278 5.41276C68.6247 5.66429 68.3732 5.96414 68.1733 6.31242C67.9734 6.66066 67.8347 7.03469 67.7573 7.43453H74.5868C74.5094 7.03469 74.3675 6.66066 74.1612 6.31242C73.9548 5.96414 73.7001 5.66429 73.397 5.41276C73.0939 5.16128 72.7521 4.96135 72.3716 4.81303C71.9911 4.66467 71.5881 4.59052 71.1624 4.59052ZM81.3267 4.82267C81.3267 4.20359 81.4428 3.61996 81.6749 3.0718C81.9071 2.52364 82.2263 2.04641 82.6326 1.64011C83.0389 1.23381 83.5161 0.911357 84.0643 0.672788C84.6125 0.434173 85.1961 0.314865 85.8152 0.314865C86.4343 0.314865 87.0179 0.434173 87.5661 0.672788C88.1142 0.911357 88.5915 1.23381 88.9977 1.64011C89.404 2.04641 89.7265 2.52364 89.9651 3.0718C90.2037 3.61996 90.323 4.20359 90.323 4.82267C90.323 5.44181 90.2037 6.02543 89.9651 6.57359C89.7265 7.12175 89.404 7.59898 88.9977 8.00528C88.5915 8.41158 88.1142 8.73076 87.5661 8.96297C87.0179 9.19512 86.4343 9.31121 85.8152 9.31121C85.4798 9.31121 85.1477 9.27252 84.8188 9.19513C84.4899 9.11774 84.1803 9.00167 83.8902 8.84685C83.5999 8.69208 83.3355 8.50183 83.0969 8.27613C82.8583 8.05043 82.6681 7.78276 82.5262 7.47322V12.1358C82.5262 12.3035 82.4681 12.4454 82.3521 12.5615C82.236 12.6776 82.0941 12.7356 81.9264 12.7356C81.7588 12.7356 81.6169 12.6776 81.5008 12.5615C81.3847 12.4454 81.3267 12.3035 81.3267 12.1358V4.82267ZM82.5262 4.82267C82.5391 5.2999 82.6358 5.73844 82.8164 6.13828C82.9969 6.53813 83.2356 6.88314 83.5322 7.17336C83.8289 7.46358 84.1707 7.69251 84.5576 7.86015C84.9445 8.02784 85.3638 8.11168 85.8152 8.11168C86.2666 8.11168 86.6922 8.02461 87.0921 7.85051C87.4919 7.67637 87.8434 7.44098 88.1465 7.14435C88.4496 6.84767 88.6882 6.49944 88.8623 6.09959C89.0365 5.69975 89.1235 5.27412 89.1235 4.82267C89.1235 4.37127 89.0365 3.94565 88.8623 3.54581C88.6882 3.14596 88.4496 2.7945 88.1465 2.49137C87.8434 2.18828 87.4919 1.94966 87.0921 1.77557C86.6922 1.60143 86.2666 1.51436 85.8152 1.51436C85.3638 1.51436 84.9381 1.60143 84.5383 1.77557C84.1385 1.94966 83.7902 2.18828 83.4935 2.49137C83.1969 2.7945 82.9615 3.14596 82.7874 3.54581C82.6132 3.94565 82.5262 4.37127 82.5262 4.82267ZM95.7859 3.37167C96.405 3.37167 96.9951 3.49742 97.5562 3.74895C98.1172 4.00043 98.6106 4.33904 99.0362 4.76466C99.4619 5.19028 99.8004 5.68688 100.052 6.25436C100.303 6.82189 100.429 7.42807 100.429 8.07298V12.1552C100.429 12.3229 100.371 12.4648 100.255 12.5808C100.139 12.6969 99.9971 12.755 99.8295 12.755C99.6618 12.755 99.5199 12.6969 99.4038 12.5808C99.2877 12.4648 99.2297 12.3229 99.2297 12.1552V10.9751C98.8041 11.4523 98.2914 11.8618 97.6916 12.2035C97.0918 12.5454 96.4437 12.7162 95.7472 12.7162C95.1023 12.7162 94.4994 12.6002 93.9383 12.368C93.3772 12.1358 92.8839 11.8134 92.4582 11.4007C92.0326 10.9879 91.6973 10.4978 91.4522 9.93029C91.2071 9.36276 91.0846 8.74367 91.0846 8.07298C91.0846 7.42807 91.2039 6.82512 91.4425 6.26405C91.6811 5.70298 92.01 5.21288 92.4292 4.79367C92.8484 4.3745 93.345 4.03913 93.9189 3.78765C94.4929 3.53612 95.1152 3.39749 95.7859 3.37167ZM92.2841 8.07298C92.2841 8.55021 92.3744 8.99843 92.555 9.4176C92.7355 9.83677 92.9838 10.2044 93.2998 10.5204C93.6158 10.8364 93.9834 11.0847 94.4026 11.2652C94.8218 11.4458 95.27 11.5361 95.7472 11.5361C96.2115 11.5361 96.6501 11.4491 97.0628 11.2749C97.4755 11.1008 97.8399 10.859 98.1559 10.5494C98.4719 10.2398 98.7234 9.87546 98.9105 9.4563C99.0975 9.03713 99.2039 8.57599 99.2297 8.07298C99.2297 7.59575 99.1394 7.14435 98.9588 6.71868C98.7782 6.29306 98.53 5.92226 98.214 5.60626C97.898 5.29026 97.5272 5.04197 97.1015 4.86137C96.6759 4.68082 96.2245 4.59052 95.7472 4.59052C95.27 4.59052 94.8218 4.68082 94.4026 4.86137C93.9834 5.04197 93.6158 5.29026 93.2998 5.60626C92.9838 5.92226 92.7355 6.29306 92.555 6.71868C92.3744 7.14435 92.2841 7.59575 92.2841 8.07298ZM101.481 3.97143C101.481 3.80375 101.539 3.66189 101.655 3.54581C101.771 3.42973 101.913 3.37167 102.081 3.37167C102.248 3.37167 102.39 3.42973 102.506 3.54581C102.622 3.66189 102.68 3.80375 102.68 3.97143V8.30514C102.68 8.75659 102.768 9.17899 102.942 9.57238C103.116 9.96576 103.351 10.3075 103.648 10.5978C103.945 10.888 104.29 11.1169 104.683 11.2846C105.076 11.4523 105.499 11.5361 105.95 11.5361C106.402 11.5361 106.824 11.4523 107.217 11.2846C107.611 11.1169 107.956 10.888 108.252 10.5978C108.549 10.3075 108.781 9.96576 108.949 9.57238C109.117 9.17899 109.2 8.75659 109.2 8.30514V3.95206C109.2 3.78442 109.259 3.64252 109.375 3.52644C109.491 3.41036 109.633 3.35234 109.8 3.35234C109.968 3.35234 110.11 3.41036 110.226 3.52644C110.342 3.64252 110.4 3.78442 110.4 3.95206V8.30514C110.4 8.87267 110.303 9.40792 110.11 9.91097C109.916 10.414 109.645 10.8622 109.297 11.2555C108.949 11.649 108.539 11.9714 108.069 12.2229C107.598 12.4744 107.092 12.6389 106.55 12.7162V15.6377C106.55 15.8053 106.492 15.9472 106.376 16.0633C106.26 16.1794 106.118 16.2374 105.95 16.2374C105.782 16.2374 105.641 16.1794 105.525 16.0633C105.408 15.9472 105.35 15.8053 105.35 15.6377V12.7356C104.796 12.6582 104.283 12.4938 103.812 12.2422C103.342 11.9908 102.932 11.6683 102.584 11.2749C102.236 10.8815 101.965 10.4301 101.771 9.92062C101.578 9.41115 101.481 8.87267 101.481 8.30514V3.97143Z" fill="#282829"/>
</svg>
